<?xml version="1.0" encoding="UTF-8"?>
<svg version="1.1" xmlns="http://www.w3.org/2000/svg" width="873" height="738">
<path d="M0 0 C288.09 0 576.18 0 873 0 C873 243.54 873 487.08 873 738 C584.91 738 296.82 738 0 738 C0 494.46 0 250.92 0 0 Z " fill="#000000" transform="translate(0,0)"/>
<path d="M0 0 C64.15827696 -0.03411472 128.31655468 -0.06607077 192.47483826 -0.08468628 C193.42403496 -0.08496239 194.37323166 -0.08523851 195.35119191 -0.08552299 C215.97859211 -0.09150847 236.60599242 -0.09704888 257.23339287 -0.10213066 C267.3487105 -0.10462538 277.46402811 -0.10721849 287.5793457 -0.10986328 C288.58595436 -0.1101248 289.59256303 -0.11038632 290.62967498 -0.11065576 C323.27096978 -0.11918213 355.91225767 -0.1342075 388.55354828 -0.15259444 C422.08994064 -0.17145134 455.62632916 -0.18376896 489.16272673 -0.18782998 C493.89688006 -0.18840631 498.63103338 -0.18905758 503.36518669 -0.18975449 C504.29695815 -0.18988933 505.22872962 -0.19002418 506.18873658 -0.19016311 C521.20230507 -0.19252877 536.21586175 -0.20181088 551.22942541 -0.21366407 C566.3142626 -0.22542648 581.39908803 -0.22993899 596.48392964 -0.22700275 C605.45182054 -0.22547882 614.41966854 -0.2295619 623.38755172 -0.24159509 C629.37422799 -0.24908096 635.36087608 -0.24933712 641.34755428 -0.24366363 C644.76115473 -0.24063709 648.1746739 -0.24080235 651.58826572 -0.24976636 C655.26310178 -0.25774438 658.93772491 -0.25349537 662.61255741 -0.24609566 C663.67549714 -0.25134968 664.73843687 -0.25660371 665.8335869 -0.26201695 C671.28745598 -0.23705104 675.84602721 0.17999238 681 2 C680.58503777 10.32555347 678.56304391 17.91339988 676.1875 25.875 C675.99391907 26.53196869 675.80033813 27.18893738 675.60089111 27.86581421 C670.53186768 45.05935205 664.88118475 62.06891557 659 79 C658.62536621 80.07942871 658.25073242 81.15885742 657.86474609 82.27099609 C656.95406013 84.85678029 656.01886722 87.43082253 655.0625 90 C654.81677246 90.68682861 654.57104492 91.37365723 654.31787109 92.08129883 C652.66115492 96.35113376 650.80847655 98.49781075 647 101 C644.00474733 101.49860334 644.00474733 101.49860334 640.60188961 101.49663544 C639.3020614 101.50561623 638.0022332 101.51459702 636.66301626 101.52384996 C635.22235805 101.51360373 633.78170238 101.5029959 632.34104919 101.49206543 C630.80927942 101.49507601 629.27751227 101.49985245 627.74575287 101.50624418 C623.53465267 101.51876882 619.32393282 101.5064396 615.11285889 101.49016929 C610.57225527 101.47701202 606.03169737 101.48695842 601.49108887 101.49427795 C593.62266101 101.50396443 585.75434384 101.49948549 577.88592339 101.4858551 C566.50512435 101.4665098 555.12445006 101.47292255 543.74364782 101.48642892 C525.27383526 101.50801865 506.80405209 101.51472165 488.33422852 101.50927734 C487.22858718 101.50895671 486.12294585 101.50863608 484.98380024 101.50830573 C477.13503334 101.50593236 469.28626667 101.50302776 461.4375 101.5 C452.47013356 101.49654093 443.50276712 101.49332246 434.53540039 101.49072266 C433.43080026 101.49039715 432.32620013 101.49007163 431.18812727 101.48973626 C412.78680986 101.48479847 394.38553331 101.49545289 375.98422867 101.51729441 C364.62825672 101.53001193 353.27245278 101.5285091 341.91648985 101.50884354 C334.14011371 101.4962624 326.36382295 101.49767383 318.58744698 101.51021707 C314.09681017 101.51694807 309.60642225 101.51697333 305.11580849 101.4996357 C301.00832817 101.48387831 296.90128394 101.48632382 292.793813 101.50348574 C291.30466556 101.50641475 289.81548647 101.50250734 288.32637887 101.49122757 C286.30838916 101.47689675 284.29026149 101.48939379 282.27226925 101.50336456 C281.14948855 101.50271515 280.02670786 101.50206574 278.8699035 101.50139666 C275.31434057 102.1191232 274.20629705 103.19893368 272 106 C270.67474185 108.55901741 269.52572545 111.03029197 268.4375 113.6875 C268.09944336 114.50581299 267.76138672 115.32412598 267.41308594 116.16723633 C259.94690241 134.73392725 254.1386973 153.97847843 248.49945068 173.16339111 C248.27275696 173.93447205 248.04606323 174.70555298 247.8125 175.5 C247.58226135 176.28332703 247.35202271 177.06665405 247.11480713 177.87371826 C241.52355143 196.81759236 235.31690927 215.55873354 229.125 234.3125 C228.85997681 235.11524731 228.59495361 235.91799461 228.32189941 236.7450676 C225.95867376 243.90193161 223.59323936 251.05806444 221.22537231 258.21339417 C217.38562132 269.81832096 213.5835971 281.43507255 209.8125 293.0625 C204.08016903 310.72098847 198.29261108 328.36122055 192.5 346 C186.62528307 363.88916879 180.75677021 381.78019605 174.9375 399.6875 C168.93713411 418.15152051 162.89068305 436.60032928 156.83807373 455.04727173 C149.93239634 476.09427646 143.03880288 497.14520764 136.18469238 518.20907593 C135.59549126 520.01156042 135.00182356 521.81259242 134.40319824 523.61196899 C133.0916294 527.56362 131.84016531 531.5042155 130.76904297 535.52832031 C130.57273788 536.22188629 130.3764328 536.91545227 130.17417908 537.6300354 C129.66568936 539.44259706 129.1932521 541.26517111 128.72436523 543.08837891 C126.16905656 547.40306265 122.69037745 548.52757579 118 550 C114.33845724 550.52565436 110.74628923 550.53819312 107.05175781 550.50170898 C105.99533585 550.50711197 104.93891388 550.51251495 103.85047913 550.51808167 C100.38440301 550.53051418 96.91916615 550.51411817 93.453125 550.49609375 C91.0341589 550.49624882 88.61519255 550.49773909 86.19622803 550.50050354 C81.13933258 550.50188492 76.08272166 550.48936895 71.02587891 550.46655273 C64.54372523 550.43810837 58.06204188 550.44092559 51.57985306 550.45364285 C46.59045388 550.46059451 41.60116354 550.45281753 36.61177826 550.44038582 C34.22116259 550.43587065 31.83053524 550.43553508 29.43991852 550.43945122 C26.10325601 550.44235987 22.76724434 550.42587426 19.43066406 550.40405273 C18.44354935 550.40855438 17.45643463 550.41305603 16.43940735 550.41769409 C7.42891414 550.31973067 7.42891414 550.31973067 4 547 C2.47085609 542.3765622 3.247953 539.11838031 4.74389648 534.57885742 C4.94272462 533.96313527 5.14155275 533.34741312 5.34640598 532.71303272 C6.00872765 530.67282642 6.68979727 528.63940947 7.37109375 526.60546875 C7.84548757 525.15695749 8.31868778 523.70805485 8.79077148 522.25878906 C10.06083782 518.37067759 11.34702907 514.48807646 12.63618088 510.60625839 C13.97899942 506.55299979 15.3063406 502.49468161 16.63500977 498.43676758 C18.76207897 491.94620492 20.89700366 485.45828697 23.0390625 478.97265625 C26.54556503 468.35520179 30.01993018 457.7273644 33.48770142 447.09719849 C34.4437309 444.1684117 35.40171683 441.24027078 36.36010742 438.31225586 C41.22061949 423.45276736 45.98495242 408.56350782 50.73239136 393.66757202 C56.60304303 375.25780167 62.60812189 356.89336825 68.64538956 338.53776932 C74.48616821 320.7785205 80.2673679 303.00210858 85.9375 285.1875 C92.01647682 266.08881078 98.23406222 247.03792016 104.5 228 C110.90987517 208.52413333 117.27105579 189.03472051 123.5 169.5 C123.82098663 168.49340332 124.14197327 167.48680664 124.47268677 166.44970703 C125.1084154 164.45589247 125.74414235 162.46207737 126.37986755 160.46826172 C126.68892532 159.49904785 126.99798309 158.52983398 127.31640625 157.53125 C127.62091202 156.57621582 127.92541779 155.62118164 128.239151 154.63720703 C131.32257555 144.97452825 134.43807458 135.32232414 137.56933594 125.67504883 C138.14234593 123.90944972 138.7147862 122.14366559 139.28662109 120.37768555 C140.06310262 117.98040879 140.84171012 115.58383457 141.62109375 113.1875 C141.84941391 112.48185913 142.07773407 111.77621826 142.31297302 111.04919434 C143.88502027 106.22995945 143.88502027 106.22995945 145 104 C141.21560198 102.25440413 138.2390361 101.74388719 134.08378601 101.7215271 C132.89893112 101.71036362 131.71407623 101.69920013 130.49331665 101.68769836 C129.20218964 101.68553818 127.91106262 101.68337799 126.58081055 101.68115234 C125.20077428 101.67184931 123.82074363 101.66168007 122.4407196 101.65071106 C118.7014774 101.62343921 114.96227281 101.60827004 111.22295737 101.59528303 C107.3124789 101.57964015 103.40207711 101.55285362 99.49165344 101.5272522 C92.08991166 101.48048489 84.68815541 101.44373088 77.28634149 101.41057932 C67.28200859 101.36519231 57.27777062 101.30432722 47.27351665 101.24433136 C31.51572538 101.15023921 15.75790687 101.07681853 0 101 C0 77.57 0 54.14 0 30 C317.295 29.505 317.295 29.505 641 29 C641.66 27.68 642.32 26.36 643 25 C430.81 25 218.62 25 0 25 C0 16.75 0 8.5 0 0 Z " fill="#FFFFFF" transform="translate(59,91)"/>
<path d="M0 0 C1.3832734 -0.00346023 2.76654403 -0.00822724 4.14980894 -0.01418173 C7.93727634 -0.02667395 11.72451615 -0.02052924 15.51198423 -0.01122308 C19.60303668 -0.00442451 23.69405049 -0.01491856 27.78509521 -0.02316284 C35.79886549 -0.03649982 43.81255142 -0.03362082 51.82632499 -0.02492492 C58.35004972 -0.01814062 64.87375086 -0.01723491 71.3974781 -0.02049637 C72.79213326 -0.02118592 72.79213326 -0.02118592 74.21496328 -0.0218894 C76.10419373 -0.02284864 77.99342418 -0.02382128 79.88265461 -0.02480717 C97.602902 -0.03336304 115.32310285 -0.02352802 133.0433426 -0.00740607 C148.20181585 0.00595972 163.36022005 0.00370036 178.51869202 -0.01016235 C196.15061168 -0.02627972 213.78249036 -0.0324996 231.41441637 -0.02332556 C233.30176548 -0.02237002 235.18911458 -0.02142691 237.0764637 -0.02049637 C238.00485526 -0.02003354 238.93324683 -0.01957072 239.88977147 -0.01909386 C246.38634231 -0.01651955 252.88288689 -0.02084186 259.37945366 -0.02793503 C267.32579047 -0.03642056 275.2720386 -0.03392545 283.21836548 -0.0180928 C287.26197476 -0.01029782 291.30543716 -0.00696444 295.3490448 -0.01704025 C361.8214566 -0.16846832 361.8214566 -0.16846832 388.37440491 19.38095093 C389.00217834 19.81923218 389.62995178 20.25751343 390.27674866 20.70907593 C400.03059348 28.13651138 403.68598618 40.68648661 405.37440491 52.38095093 C405.91405503 58.06076845 405.72075715 63.69510429 405.37440491 69.38095093 C405.33041565 70.14359253 405.28642639 70.90623413 405.24110413 71.69198608 C403.81119454 93.95903471 398.24412691 115.20074233 391.36219788 136.34432983 C390.45705383 139.12687597 389.57145508 141.91479703 388.69081116 144.70516968 C384.34140106 158.30524935 379.16779094 171.57145503 373.81825256 184.80575562 C372.86094406 187.17620298 371.91001922 189.54923908 370.9657135 191.92489624 C365.61030292 205.37071487 360.19949415 217.85068357 351.37440491 229.38095093 C350.69764709 230.28329468 350.02088928 231.18563843 349.32362366 232.11532593 C347.40104841 234.59656532 345.41612289 236.99700212 343.37440491 239.38095093 C342.60483459 240.28458374 341.83526428 241.18821655 341.04237366 242.11923218 C312.05861993 275.1196321 270.50234834 285.07572354 228.25608063 288.10031509 C210.85372354 289.19755988 193.33627625 288.86878178 175.90818644 288.88706183 C169.82241482 288.89657231 163.73671308 288.92278362 157.65098572 288.94706726 C146.17722558 288.9903928 134.70347926 289.0191466 123.22966278 289.04239064 C110.14574084 289.06962657 97.0618904 289.11352507 83.97801995 289.15867937 C57.11018728 289.25103825 30.24233219 289.32293972 3.37440491 289.38095093 C3.07203918 290.14762085 2.76967346 290.91429077 2.45814514 291.70419312 C1.70573868 293.56258115 0.89294946 295.39720091 0.03456116 297.20907593 C-4.36484598 306.63176701 -7.78589012 316.33712887 -11.06309509 326.19345093 C-11.29908417 326.90302948 -11.53507324 327.61260803 -11.7782135 328.34368896 C-14.29274915 335.9388255 -16.71664669 343.55287523 -18.93418884 351.24032593 C-19.28618347 352.45873169 -19.6381781 353.67713745 -20.00083923 354.9324646 C-20.64720105 357.20238628 -21.28136453 359.4758326 -21.90074158 361.75326538 C-23.83510246 368.62059802 -25.86439351 375.31073839 -31.56140137 379.96112061 C-36.06189918 382.04647938 -40.20488185 381.77483519 -45.10728455 381.7215271 C-46.1614003 381.72196518 -47.21551605 381.72240326 -48.30157471 381.72285461 C-51.78086458 381.72076696 -55.25967079 381.69743634 -58.73887634 381.67391968 C-61.15311418 381.66832366 -63.56735543 381.66405359 -65.9815979 381.66105652 C-72.33236617 381.64960831 -78.68292825 381.62014101 -85.03361511 381.58694458 C-91.51541861 381.55624338 -97.99725545 381.54255105 -104.47911072 381.5274353 C-117.19469342 381.49527156 -129.91013328 381.44465282 -142.62559509 381.38095093 C-143.3891801 375.96368918 -143.76345441 372.42235825 -142.02012634 367.12313843 C-141.42735901 365.27800659 -141.42735901 365.27800659 -140.82261658 363.39559937 C-140.36125495 362.01566789 -139.89974062 360.63578745 -139.43809509 359.25595093 C-138.94313782 357.73594666 -138.44979899 356.21541467 -137.95787048 354.69442749 C-136.83132403 351.21911277 -135.69536045 347.74703602 -134.55430603 344.27645874 C-132.45605704 337.88103478 -130.4033252 331.47128895 -128.35215759 325.06063843 C-123.90129616 311.16288377 -119.40823454 297.27909381 -114.90214825 283.39916611 C-113.30144882 278.46742849 -111.70458029 273.53446338 -110.1095686 268.60088348 C-107.16921226 259.50612023 -104.21955738 250.4144595 -101.25523663 241.3274765 C-99.79655923 236.85532436 -98.34194147 232.38194867 -96.89729309 227.90524292 C-95.5335337 223.68002238 -94.15816241 219.45875901 -92.77393913 215.24020004 C-92.26329292 213.6772074 -91.75682418 212.112843 -91.25479317 210.54706192 C-90.56410156 208.39521878 -89.85850673 206.2488297 -89.14903259 204.1031189 C-88.75635193 202.89557953 -88.36367126 201.68804016 -87.95909119 200.44390869 C-85.93506384 195.7948435 -83.24921768 193.33177788 -78.62559509 191.38095093 C-76.44785732 191.12729257 -76.44785732 191.12729257 -74.03898525 191.12203121 C-73.11760531 191.11518242 -72.19622537 191.10833362 -71.24692482 191.10127729 C-69.73370292 191.10520257 -69.73370292 191.10520257 -68.18991089 191.10920715 C-67.11523499 191.10412032 -66.04055908 191.09903348 -64.93331724 191.0937925 C-61.31890706 191.07908734 -57.70463275 191.07859719 -54.0901947 191.07797241 C-51.50290155 191.07031313 -48.91561089 191.06176713 -46.32832336 191.05239868 C-40.74575914 191.03351698 -35.16321682 191.02181619 -29.58062553 191.01486015 C-21.47973764 191.00467149 -13.37891536 190.98259012 -5.27806158 190.95747424 C7.90385024 190.91684146 21.08576839 190.8844078 34.26771545 190.85775757 C35.05686521 190.85616027 35.84601497 190.85456297 36.65907835 190.85291726 C37.84407141 190.85051891 37.84407141 190.85051891 39.05300373 190.84807211 C50.19619456 190.82549214 61.33937835 190.80084833 72.4825592 190.77377319 C73.26377024 190.77187705 74.04498128 190.7699809 74.84986538 190.7680273 C87.9548851 190.73605925 101.05989303 190.70027922 114.16489786 190.66273171 C122.22477994 190.63988816 130.28465423 190.62086638 138.34455698 190.60706497 C143.89479826 190.59741034 149.44502608 190.58451255 154.99525476 190.56925612 C158.18032429 190.56063737 161.36537519 190.55400085 164.55045509 190.55061531 C177.33286319 190.53627372 190.09967096 190.39619179 202.87512207 189.95213318 C204.50343038 189.89820519 204.50343038 189.89820519 206.16463381 189.84318775 C230.95209535 189.19881101 230.95209535 189.19881101 252.37440491 178.38095093 C254.06167164 175.65407461 254.06167164 175.65407461 255.37440491 172.63095093 C257.06887808 169.04698849 258.7518663 165.62683226 260.93690491 162.31845093 C268.3758712 150.70698751 272.37348137 137.64471549 273.31190491 123.94345093 C273.36959045 123.19829224 273.427276 122.45313354 273.48670959 121.68539429 C273.73330794 116.45339932 272.90174572 112.99334791 270.37440491 108.38095093 C263.13516574 100.91494041 249.59787525 99.64492521 239.73256516 99.28440762 C236.61415532 99.24184718 233.4970448 99.23029509 230.37834167 99.22946167 C229.18460367 99.22522926 227.99086567 99.22099685 226.76095378 99.21663618 C223.46502071 99.20590649 220.16913192 99.19952823 216.87318802 99.19500136 C213.312238 99.18902666 209.75130606 99.17736571 206.19036865 99.16636658 C200.02614446 99.14805633 193.86191981 99.13319546 187.69768143 99.12059021 C178.78312563 99.10226889 169.86859582 99.07760609 160.95406066 99.0512163 C146.4867619 99.00846792 132.019456 98.96933939 117.55213928 98.93319702 C116.68691902 98.93103422 115.82169875 98.92887142 114.93025969 98.92664307 C107.90669885 98.9091142 100.88313758 98.89176274 93.85957623 98.87444019 C87.71119861 98.85927284 81.56282116 98.84404177 75.41444397 98.82870483 C74.11546929 98.82546653 74.11546929 98.82546653 72.7902527 98.82216281 C58.36876102 98.7860906 43.94728259 98.74614556 29.52580917 98.70340204 C20.62875699 98.6772205 11.73170888 98.65456773 2.83463661 98.63641846 C-3.25362197 98.62377824 -9.34186479 98.60766232 -15.43010716 98.58876932 C-18.94627375 98.57798522 -22.462425 98.56887577 -25.97860527 98.56407356 C-29.78290409 98.5588481 -33.58715508 98.54603489 -37.39143372 98.53244019 C-39.07290869 98.5319962 -39.07290869 98.5319962 -40.78835285 98.53154325 C-42.30742778 98.52425664 -42.30742778 98.52425664 -43.85719109 98.51682281 C-44.73608399 98.51470685 -45.6149769 98.51259088 -46.52050292 98.51041079 C-48.62559509 98.38095093 -48.62559509 98.38095093 -50.62559509 97.38095093 C-50.86243414 91.41294299 -50.1464509 86.59198364 -48.42247009 80.89657593 C-48.18861099 80.09483948 -47.95475189 79.29310303 -47.71380615 78.46707153 C-46.94633829 75.85133087 -46.16203309 73.24104562 -45.37559509 70.63095093 C-44.83375182 68.80936467 -44.29200502 66.98774971 -43.75035095 65.16610718 C-40.06631514 52.8498877 -36.20742345 40.59167433 -32.18809509 28.38095093 C-31.8214978 27.25493469 -31.8214978 27.25493469 -31.44749451 26.10617065 C-25.20137133 6.99883181 -25.20137133 6.99883181 -21.62559509 3.38095093 C-14.46185757 -0.10339137 -7.86838387 -0.04130621 0 0 Z " fill="#FFFFFF" transform="translate(427.62559509277344,251.61904907226563)"/>
<path d="M0 0 C1.32 0 2.64 0 4 0 C7.00722941 14.29035415 5.53276811 30.74036912 3 45 C2.8870459 45.6609668 2.7740918 46.32193359 2.65771484 47.00292969 C-0.35545483 63.95251332 -7.30632354 79.43559417 -17.78125 93.0703125 C-20.0332793 96.04394274 -21.91776285 99.06631856 -23.671875 102.3515625 C-32.0884154 112.79797441 -52.7410037 113.79461682 -65.30566406 115.27090454 C-69.88269805 115.74510454 -74.46627821 116.11498559 -79.05517578 116.453125 C-81.34110615 116.62248882 -83.62551309 116.80634822 -85.91015625 116.9921875 C-116.64457957 119.41101145 -147.47653726 119.20085898 -178.28272152 119.30332303 C-184.65409062 119.32546825 -191.02543805 119.35271481 -197.39678955 119.37937927 C-208.0574858 119.42332597 -218.71818918 119.46422195 -229.37890625 119.50268555 C-240.3431078 119.54225272 -251.30729951 119.58372702 -262.27148438 119.62768555 C-262.9511371 119.63040982 -263.63078983 119.63313409 -264.33103809 119.63594092 C-267.74179684 119.64962386 -271.15255543 119.66334345 -274.56331396 119.67708123 C-302.70885519 119.79039811 -330.85441824 119.89727862 -359 120 C-359.31161072 120.99453941 -359.31161072 120.99453941 -359.6295166 122.00917053 C-361.62484893 128.37522272 -363.62372686 134.74015052 -365.62622833 141.10395145 C-366.65467542 144.37268272 -367.68192392 147.6417788 -368.70605469 150.91186523 C-373.3513598 165.73518223 -378.10795319 180.49748849 -383.29101562 195.14233398 C-385.53875837 201.49505611 -387.7853241 207.84489372 -389.46484375 214.375 C-389.82932617 215.75945312 -389.82932617 215.75945312 -390.20117188 217.171875 C-390.69181023 219.05634275 -391.17879491 220.94176558 -391.66210938 222.828125 C-393.68418476 230.46826207 -396.34116158 237.67938757 -400.5 244.4375 C-401.07234375 245.39462891 -401.07234375 245.39462891 -401.65625 246.37109375 C-403.26860749 248.32560849 -404.63607319 249.11581807 -407 250 C-409.75 249.625 -409.75 249.625 -412 249 C-411.36291477 243.44660972 -410.04731565 238.35575416 -408.39453125 233.0234375 C-408.12243332 232.13262985 -407.85033539 231.2418222 -407.56999207 230.32402039 C-406.97202709 228.37123295 -406.37135062 226.41927426 -405.76831055 224.4680481 C-404.79495431 221.3182213 -403.82986841 218.1659355 -402.86523438 215.01342773 C-398.97193227 202.34190323 -394.95311936 189.71639538 -390.84110069 177.11447906 C-390.07584576 174.76671035 -389.31306367 172.41815383 -388.55122375 170.0692749 C-388.30008788 169.2950695 -388.04895201 168.52086411 -387.79020596 167.72319794 C-387.28383582 166.16193974 -386.77757763 164.60064524 -386.27143192 163.03931427 C-384.76991181 158.41353016 -383.2503698 153.79413837 -381.71797657 149.17849636 C-380.75435058 146.26301128 -379.80667654 143.34250941 -378.86281776 140.42057228 C-378.41936658 139.05938037 -377.96922856 137.70034519 -377.51180077 136.34378624 C-374.35756392 126.97642088 -373.17725076 120.00435045 -376.0625 110.5 C-377.28286983 105.94395264 -377.1697174 101.68608607 -377 97 C-371.89918886 99.77217996 -367.22157165 102.90034737 -362.52734375 106.31640625 C-356.31204261 110.45673823 -351.87836882 111.43580562 -344.56315613 111.3742218 C-343.14859814 111.38018341 -343.14859814 111.38018341 -341.70546323 111.38626546 C-338.54852411 111.39588156 -335.39203391 111.3840735 -332.23510742 111.37231445 C-329.96939426 111.37474295 -327.70368216 111.37846283 -325.43797302 111.38337708 C-319.27976424 111.3927919 -313.1217143 111.38335004 -306.9635179 111.37004495 C-300.49962963 111.35871285 -294.03574899 111.36284 -287.57185364 111.36479187 C-276.69622868 111.36567549 -265.8206753 111.35466178 -254.94506836 111.33618164 C-243.80735384 111.31726152 -232.66971187 111.31007199 -221.53198242 111.31567383 C-208.07093315 111.32242431 -194.60993651 111.31901604 -181.14888954 111.30657005 C-176.03115554 111.30196352 -170.91344129 111.30103306 -165.7957058 111.3031559 C-159.73572314 111.30506458 -153.67583144 111.29674069 -147.61586952 111.2810955 C-145.4123281 111.27691424 -143.20877734 111.27595951 -141.00523376 111.27878571 C-99.14067182 112.78282943 -99.14067182 112.78282943 -60.5625 99.8125 C-57.82464904 96.80754163 -55.68395335 93.69545824 -53.5 90.27734375 C-49.0927396 83.58611247 -44.29756546 78.59169091 -36.625 75.75 C-23.53874749 70.29263269 -12.49405409 50.92785445 -6 39 C-5.22462891 37.61941406 -5.22462891 37.61941406 -4.43359375 36.2109375 C0.8733773 24.99221237 -0.06943323 12.15898338 0 0 Z " fill="#000000" transform="translate(726,355)"/>
<path d="M0 0 C0.66 0 1.32 0 2 0 C5.58962531 10.76887593 4.68415654 22.05909195 2.27734375 32.96875 C2.09835037 33.79494339 1.91935699 34.62113678 1.73493958 35.47236633 C-0.11301395 43.81189616 -2.37802771 52.00267435 -4.8125 60.1875 C-5.06385712 61.03763672 -5.31521423 61.88777344 -5.57418823 62.76367188 C-25.98655195 131.6303909 -49.4205958 199.60449712 -72.21550369 267.70817947 C-73.75795899 272.31717302 -75.29926814 276.92654962 -76.84068489 281.53589058 C-78.04237874 285.12663046 -79.24644397 288.71657042 -80.45054626 292.3065033 C-81.248757 294.69096599 -82.0469008 297.0754511 -82.8449707 299.45996094 C-83.20459837 300.53008077 -83.56422604 301.6002006 -83.93475151 302.7027483 C-87.46927012 313.27576701 -90.66384585 323.94550102 -93.83154297 334.63305664 C-101.69071633 361.10739995 -109.82389153 387.49832134 -119.5 413.375 C-119.80228516 414.1896875 -120.10457031 415.004375 -120.41601562 415.84375 C-122.14499272 420.32425949 -124.01107856 424.21797861 -127 428 C-130.0625 428.5625 -130.0625 428.5625 -133 428 C-134.68359375 426.46484375 -134.68359375 426.46484375 -136 425 C-135.78496826 424.34681793 -135.56993652 423.69363586 -135.34838867 423.0206604 C-126.09871571 394.91819529 -116.85365992 366.81548657 -107.875 338.625 C-102.33225857 321.22254593 -96.69764773 303.85235421 -91 286.5 C-85.2613652 269.02248451 -79.58529287 251.52712791 -74 234 C-68.04508079 215.31295293 -61.98006047 196.66412275 -55.86053467 178.03036499 C-50.37248276 161.31493023 -44.9663873 144.57534552 -39.625 127.8125 C-32.17608924 104.450264 -24.54901426 81.15557281 -16.546875 57.9765625 C-16.10990547 56.70842712 -16.10990547 56.70842712 -15.66410828 55.41467285 C-14.26687426 51.36010876 -12.86478646 47.30741645 -11.45043945 43.25878906 C-8.8166832 35.67187385 -6.36355935 28.06451191 -4.203125 20.328125 C-3.99893448 19.59826385 -3.79474396 18.86840271 -3.58436584 18.11642456 C-1.95672799 12.14532674 -0.80639871 6.13825884 0 0 Z " fill="#000000" transform="translate(227,184)"/>
<path d="M0 0 C5.03586188 1.75449048 9.20001859 4.65215874 13.56445312 7.63476562 C14.4394043 8.21581055 14.4394043 8.21581055 15.33203125 8.80859375 C15.84483643 9.15720459 16.3576416 9.50581543 16.88598633 9.86499023 C24.56611673 13.98843708 31.01540104 14.43088368 39.61643982 14.38526917 C40.87718183 14.39050486 42.13792384 14.39574056 43.43687016 14.40113491 C46.92053704 14.4152372 50.40396965 14.41087049 53.88764799 14.40342176 C57.65135401 14.39867071 61.41500696 14.41125589 65.17869568 14.42178345 C71.6981341 14.43774449 78.2175104 14.44303566 84.73696709 14.44125557 C94.18143474 14.43886749 103.6258036 14.4548899 113.07024539 14.47570812 C128.41881197 14.50922598 143.76736969 14.53089076 159.1159668 14.54370117 C160.03407409 14.54447066 160.95218138 14.54524015 161.8981101 14.54603296 C165.61722533 14.54913468 169.33634059 14.55221751 173.05545586 14.555273 C183.27387056 14.56379068 193.49228216 14.57469554 203.71069336 14.58666992 C205.08207584 14.58827195 205.08207584 14.58827195 206.48116302 14.58990634 C221.76266983 14.60804228 237.04415575 14.63406173 252.32564217 14.66480106 C261.73704921 14.68328777 271.1484092 14.69426664 280.55983467 14.69532298 C287.01964418 14.69643231 293.47942154 14.70444058 299.93921744 14.71770663 C303.65776485 14.72507421 307.37624185 14.72926381 311.09479523 14.72458839 C347.31472253 14.68389977 347.31472253 14.68389977 362.5625 19.125 C363.80128906 19.47820312 365.04007813 19.83140625 366.31640625 20.1953125 C367.20199219 20.46085937 368.08757812 20.72640625 369 21 C369 21.66 369 22.32 369 23 C368.11884437 22.95595094 368.11884437 22.95595094 367.21988761 22.91101199 C349.42325789 22.04819222 331.6485931 21.83856713 313.83495092 21.82529819 C309.89527569 21.82131649 305.95561264 21.81174794 302.01594543 21.80308533 C292.56986086 21.7835744 283.12377561 21.77330383 273.67767602 21.76435754 C270.11252756 21.76083389 266.54737994 21.75669009 262.98223219 21.75251788 C247.2415714 21.73410476 231.50091052 21.71834567 215.76024055 21.71061993 C211.9329338 21.70871063 208.10562705 21.70679016 204.27832031 21.70483398 C203.32727621 21.70435024 202.37623211 21.7038665 201.39636849 21.7033681 C185.91585039 21.69502871 170.43540854 21.66960316 154.95492388 21.63725331 C139.0243316 21.60423518 123.09377832 21.58617738 107.16315162 21.58297569 C98.23249968 21.5808096 89.3019602 21.57204225 80.37134171 21.54651451 C72.78746747 21.52488241 65.20373324 21.51672132 57.61983164 21.52648129 C53.75091758 21.53104301 49.88229303 21.52903052 46.0134182 21.50971985 C41.82702705 21.48900261 37.64128563 21.49901439 33.4548645 21.51225281 C31.60838733 21.49579894 31.60838733 21.49579894 29.72460759 21.47901267 C28.60891514 21.48759356 27.4932227 21.49617445 26.34372139 21.50501537 C25.37721503 21.50403856 24.41070868 21.50306176 23.41491425 21.50205535 C20.85786637 21.78855079 20.85786637 21.78855079 19.21676815 23.89000636 C17.90697037 26.16132238 17.2111708 28.16299576 16.5703125 30.703125 C16.21259766 32.05083984 16.21259766 32.05083984 15.84765625 33.42578125 C15.37011703 35.29205614 14.89609289 37.15923438 14.42578125 39.02734375 C12.58217542 45.93840089 10.1228868 51.8771132 5 57 C3.125 57.44921875 3.125 57.44921875 1 57.6875 C0.29875 57.77386719 -0.4025 57.86023438 -1.125 57.94921875 C-3 58 -3 58 -5 57 C-4.62718564 55.60358131 -4.25144541 54.20794421 -3.875 52.8125 C-3.61074219 51.81863281 -3.34648437 50.82476562 -3.07421875 49.80078125 C-2.23580908 46.8343354 -1.33925578 43.9132223 -0.39453125 40.98046875 C3.98329203 27.62568959 3.98329203 27.62568959 2 14 C1.6063564 12.37941532 1.23059255 10.75435691 0.875 9.125 C0.71 8.40699219 0.545 7.68898438 0.375 6.94921875 C-0.07597801 4.60507263 -0.15355777 2.38014548 0 0 Z " fill="#000000" transform="translate(410,262)"/>
</svg>
